<svg width="49" height="49" viewBox="0 0 49 49" xmlns="http://www.w3.org/2000/svg">
	<rect width="49" height="49" rx="24.5" />
	<path d="M35.8094 34.3027L28.7082 27.2016C29.8102 25.777 30.4062 24.0352 30.4062 22.2031C30.4062 20.0102 29.5504 17.9539 28.0027 16.4035C26.4551 14.8531 24.3934 14 22.2031 14C20.0129 14 17.9512 14.8559 16.4035 16.4035C14.8531 17.9512 14 20.0102 14 22.2031C14 24.3934 14.8559 26.4551 16.4035 28.0027C17.9512 29.5531 20.0102 30.4062 22.2031 30.4062C24.0352 30.4062 25.7742 29.8102 27.1988 28.7109L34.3 35.8094C34.3208 35.8302 34.3455 35.8467 34.3728 35.858C34.4 35.8693 34.4291 35.8751 34.4586 35.8751C34.4881 35.8751 34.5172 35.8693 34.5444 35.858C34.5716 35.8467 34.5964 35.8302 34.6172 35.8094L35.8094 34.6199C35.8302 34.5991 35.8467 34.5744 35.858 34.5472C35.8693 34.52 35.8751 34.4908 35.8751 34.4613C35.8751 34.4319 35.8693 34.4027 35.858 34.3755C35.8467 34.3483 35.8302 34.3236 35.8094 34.3027ZM26.5344 26.5344C25.375 27.691 23.8383 28.3281 22.2031 28.3281C20.568 28.3281 19.0312 27.691 17.8719 26.5344C16.7152 25.375 16.0781 23.8383 16.0781 22.2031C16.0781 20.568 16.7152 19.0285 17.8719 17.8719C19.0312 16.7152 20.568 16.0781 22.2031 16.0781C23.8383 16.0781 25.3777 16.7125 26.5344 17.8719C27.691 19.0312 28.3281 20.568 28.3281 22.2031C28.3281 23.8383 27.691 25.3777 26.5344 26.5344Z" fill="white" />
</svg>
